<?xml version="1.0" encoding="utf-8" ?>	<!-- Generator: Assembly 2.2 - http://assemblyapp.co -->	<svg version="1.1" xmlns="http://www.w3.org/2000/svg" xmlns:xlink="http://www.w3.org/1999/xlink" width="2048.00" height="2048.00" viewBox="0 0 2048.0 2048.0">		<g id="document" transform="matrix(1,0,0,1,1024.0,1024.0)">			<path d="M-846.315,-5.68434e-14 L1.13687e-13,-5.68434e-14 L1.13687e-13,-846.315 L-846.315,-846.315 L-846.315,-5.68434e-14 Z " fill="#a5ae31" fill-opacity="1.00" />			<path d="M-5.68434e-14,0 L846.315,0 L846.315,-846.315 L-5.68434e-14,-846.315 L-5.68434e-14,0 Z " fill="#79bd9a" fill-opacity="1.00" />			<path d="M-846.315,846.315 L0,846.315 L0,-1.13687e-13 L-846.315,-1.13687e-13 L-846.315,846.315 Z " fill="#87c423" fill-opacity="1.00" />			<path d="M3.41061e-13,846.315 L846.315,846.315 L846.315,1.13687e-13 L3.41061e-13,1.13687e-13 L3.41061e-13,846.315 Z " fill="#509547" fill-opacity="1.00" />			<path d="M-648.823,648.823 L648.823,648.823 L648.823,-648.823 L-648.823,-648.823 L-648.823,648.823 Z " fill="#bde9b7" fill-opacity="0.51" />			<path d="M-244.044,-195.235 C-244.044,-222.08 -222.08,-244.044 -195.235,-244.044 L195.235,-244.044 C222.08,-244.044 244.044,-222.08 244.044,-195.235 C244.044,-168.39 222.08,-146.426 195.235,-146.426 L-195.235,-146.426 C-222.08,-146.426 -244.044,-168.39 -244.044,-195.235 Z M-195.235,48.8088 L195.235,48.8088 C222.08,48.8088 244.044,26.8448 244.044,7.7573e-06 C244.044,-26.8448 222.08,-48.8088 195.235,-48.8088 L-195.235,-48.8088 C-222.08,-48.8088 -244.044,-26.8448 -244.044,-7.7573e-06 C-244.044,26.8448 -222.08,48.8088 -195.235,48.8088 Z M-195.235,244.044 L195.235,244.044 C222.08,244.044 244.044,222.08 244.044,195.235 C244.044,168.39 222.08,146.426 195.235,146.426 L-195.235,146.426 C-222.08,146.426 -244.044,168.39 -244.044,195.235 C-244.044,222.08 -222.08,244.044 -195.235,244.044 Z " fill="#efefef" fill-opacity="1.00" />		</g>	</svg>